<svg id="Layer_1" data-name="Layer 1" xmlns="http://www.w3.org/2000/svg" viewBox="0 0 512 512"><defs><style>.cls-1{fill:#9c8e74;}.cls-2{fill:#2d2d35;}</style></defs><title>coins</title><path class="cls-1" d="M240,15.06H270.4a17.64,17.64,0,0,0,3.13.79c25.28,1.73,49.81,7,73.05,17.08Q468.4,85.5,494.43,215.8c1.77,8.94,2.57,18.07,3.82,27.1v30.38a22.48,22.48,0,0,0-.82,3.6,229.5,229.5,0,0,1-10.07,53.44C446.88,460.79,306.41,532.19,176.88,488.2,59.57,448.37-9,326.43,17.89,205.51,40.38,104.35,124.33,28.44,226.5,16.83,231,16.32,235.51,15.65,240,15.06ZM44.53,258.21C44.65,374.47,139.3,469,255.41,468.77s210.31-94.42,210.47-210.5S371.19,47.41,255.18,47.43C139,47.44,44.41,142.08,44.53,258.21Z"/><path class="cls-2" d="M255.14,436.41C156.89,436.32,76.94,356.2,76.91,257.8c0-97.6,80.21-177.9,177.89-178,98.48-.11,179.18,80.54,178.72,178.6C433.05,356.7,353.09,436.5,255.14,436.41ZM262.29,163l9.58-38.86-24.18-5.88-9.8,39.85-49.11-11.79-6.37,25.83c7,1.76,13.32,3.12,19.5,5,7.85,2.34,10.84,7.79,9,15.64-1.65,6.91-3.37,13.81-5.07,20.71Q195.44,255.34,185,297.19c-1.76,7.1-5.19,9.54-12.38,8.33-4.81-.81-9.49-2.39-14.29-3.33-1.19-.23-3.41.32-3.79,1.14-3.81,8.28-7.34,16.7-11.13,25.5l49,12.46-10.15,40.5,24.19,5.86,9.83-39.86,19.29,4.86-9.54,40,24.16,5.86,10.26-40c9.08,1,17.54,2.1,26,2.66,11.63.76,23.12-.26,33.87-5.22,17.14-7.9,24.62-22.95,28.66-40.14,4.75-20.23-1.64-35.13-19.16-46.27l-5-3.18a16.23,16.23,0,0,1,1.62-.74c16.26-4.89,25-16.28,28.12-32.54,3.22-17-1.76-31.27-15.65-41.44C331.41,186,322.46,182,314,177.5a79.66,79.66,0,0,0-8-3.25l9.58-39.83-24.17-5.88-9.88,38.81Z"/><path class="cls-2" d="M225,317.93l13.48-53.33c16.7,4.19,33.43,7.09,48,16.34,8.09,5.14,14.29,11.69,13.8,22.16-.59,12.68-8.16,20.41-21.48,22.44-14.11,2.15-27.66-1-41.21-4.17C233.45,320.39,229.41,319.14,225,317.93Z"/><path class="cls-2" d="M256.57,190.62c12.48,4.33,24.57,7.92,36.15,12.75,7.57,3.16,13.59,8.9,14.77,17.8,1.87,14.14-6.9,24.2-22.18,25.37-13.93,1.07-27.13-2.74-40.87-6.36Z"/></svg>