<svg id="Layer_1" data-name="Layer 1" xmlns="http://www.w3.org/2000/svg" viewBox="0 0 512 512"><defs><style>.cls-1{fill:#9c8e74;}.cls-2{fill:#2d2d35;}</style></defs><title>coins</title><path class="cls-1" d="M240.77,13.59h30.56a17.74,17.74,0,0,0,3.15.8c25.43,1.74,50.11,7.09,73.5,17.18q122.55,52.89,148.74,184c1.78,9,2.58,18.17,3.84,27.27v30.56a22.61,22.61,0,0,0-.83,3.62,230.89,230.89,0,0,1-10.13,53.76C448.88,462,307.56,533.84,177.25,489.59c-118-40.07-187-162.75-160-284.4C39.93,103.42,124.38,27,227.17,15.37,231.71,14.86,236.24,14.19,240.77,13.59ZM38.69,258.12c-.34,119.43,97.1,217,217,217.31s216.8-96.34,217.67-217.13c.86-119.19-97.54-217.73-217.24-217.57A217.46,217.46,0,0,0,38.69,258.12Z"/><path class="cls-2" d="M65.93,258C65.93,153.19,151.28,67.89,256.1,68s190.09,85.27,190.06,190.17S360.86,448.26,256,448.21,65.94,363,65.93,258ZM173,249.73c.76.51,1.14.81,1.55,1,26.26,13.58,52.49,27.21,78.84,40.59,1.65.84,4.61.33,6.43-.59,25.07-12.76,50.05-25.69,75.05-38.6,1.34-.69,2.61-1.52,4.13-2.41L256,111.42Zm83,155.05,86.64-109.62a10.36,10.36,0,0,0-4.55,1.35c-25.38,13.16-50.82,26.22-76.09,39.6-4.43,2.35-7.74,2.27-12.2-.07-25-13.15-50.26-25.91-75.43-38.79-1.45-.74-3-1.34-4.45-2l-.41.65Z"/></svg>