<svg id="Layer_1" data-name="Layer 1" xmlns="http://www.w3.org/2000/svg" viewBox="0 0 512 512">
  <defs>
    <style>
      .cls-1{fill:none;}.cls-2{fill:#2d2d35;}.cls-3{fill:#9c8e74;}.cls-4{fill:#fff}
      .animate-path {
        stroke: #2d2d35;
        stroke-width: 10px;
      }
      #path1 {
        stroke-dasharray: 80;
        stroke-dashoffset: 0;
        animation: dash-1 3s linear infinite;
      }
      #path2 {
        stroke-dasharray: 110;
        stroke-dashoffset: 0;
        animation: dash-2 3s linear infinite;
      }
      #path3 {
        stroke-dasharray: 150;
        stroke-dashoffset: 0;
        animation: dash-1 3s linear infinite;
      }
      #path4 {
        stroke-dasharray: 80;
        stroke-dashoffset: 0;
        animation: dash-1 3s linear infinite;
      }
      #path5 {
        stroke-dasharray: 110;
        stroke-dashoffset: 0;
        animation: dash-2 3s linear infinite;
      }
      #path6 {
        stroke-dasharray: 150;
        stroke-dashoffset: 0;
        animation: dash-1 3s linear infinite;
      }

      @keyframes dash-1 {
        0% {
          stroke-dashoffset: 0;
        }
        50% {
          stroke-dashoffset: 40;
        }
        100% {
          stroke-dashoffset: 0;
        }
      }
      @keyframes dash-2 {
        0% {
          stroke-dashoffset: 40;
        }
        50% {
          stroke-dashoffset: 0;
        }
        100% {
          stroke-dashoffset: 40;
        }
      }
      .circle-1 {
        animation: circle 3s linear infinite;
      }
      @keyframes circle {
        0% {
          transform: translate(0, 0);
        }
        50% {
          transform: translate(0, 40px);
        }
        100% {
          transform: translate(0, 0);
        }
      }
      .circle-2 {
        animation: circle2 3s linear infinite;
      }
      @keyframes circle2 {
        0% {
          transform: translate(0, 0);
        }
        50% {
          transform: translate(0, -40px);
        }
        100% {
          transform: translate(0, 0);
        }
      }
    </style>
  </defs>
  <path class="cls-2 animate-path" id="path1" d="M120 410 L120 330"  stroke-linecap="null" stroke-linejoin="null"></path>
  <circle class="cls-2 circle-1" cx="120" cy="330" r="12"></circle>
  <circle class="cls-4 circle-1" cx="120" cy="330" r="4"></circle>

  <path class="cls-2 animate-path" id="path2" d="M150 430 L150 320"  stroke-linecap="null" stroke-linejoin="null"></path>
  <circle class="cls-2 circle-2" cx="150" cy="360" r="12"></circle>
  <circle class="cls-4 circle-2" cx="150" cy="360" r="4"></circle>

  <path class="cls-2 animate-path" id="path3" d="M180 450 L180 300"  stroke-linecap="null" stroke-linejoin="null"></path>
  <circle class="cls-2 circle-1" cx="180" cy="300" r="12"></circle>
  <circle class="cls-4 circle-1" cx="180" cy="300" r="4"></circle>

  <path class="cls-2 animate-path" id="path4" d="M325 230 L325 310"  stroke-linecap="null" stroke-linejoin="null"></path>
  <circle class="cls-2 circle-2" cx="325" cy="310" r="12"></circle>
  <circle class="cls-4 circle-2" cx="325" cy="310" r="4"></circle>

  <path class="cls-2 animate-path" id="path5" d="M355 210 L355 320"  stroke-linecap="null" stroke-linejoin="null"></path>
  <circle class="cls-2 circle-1" cx="355" cy="280" r="12"></circle>
  <circle class="cls-4 circle-1" cx="355" cy="280" r="4"></circle>

  <path class="cls-2 animate-path" id="path6" d="M385 190 L385 340"  stroke-linecap="null" stroke-linejoin="null"></path>
  <circle class="cls-2 circle-2" cx="385" cy="340" r="12"></circle>
  <circle class="cls-4 circle-2" cx="385" cy="340" r="4"></circle>

  <polygon class="cls-1" points="383.01 200.12 363.06 211.76 363.06 212.29 383.01 200.63 383.01 200.12"/>
  <path class="cls-1" d="M254.36,35.48,63.81,147.78,254.38,258.94,445,147.78ZM240.83,179.25H199.77a32.93,32.93,0,0,1-24-55.5l1.42-1.42a32.71,32.71,0,0,1,22.58-9h41a5.84,5.84,0,1,1,0,11.68H199.77a21.25,21.25,0,1,0,0,42.51h41a5.84,5.84,0,0,1,0,11.68Zm2.52-26.87a5.84,5.84,0,1,1,0-11.68h23.41a5.84,5.84,0,1,1,0,11.68Zm67.89,26.88H270.19a5.85,5.85,0,0,1,0-11.69h41.05a21.23,21.23,0,0,0,21.25-21.25,21.28,21.28,0,0,0-21.26-21.26H270.16a5.84,5.84,0,1,1,0-11.68h41.05a32.94,32.94,0,0,1,0,65.88Z"/>
  <polygon class="cls-1" points="353.06 217.59 332.17 229.78 332.17 230.33 353.06 218.13 353.06 217.59"/>
  <polygon class="cls-1" points="393.01 194.79 425.92 175.57 422.64 365.02 302.19 383.29 287.03 256.69 322.17 236.17 322.17 235.61 261.38 271.07 261.38 478.83 451.8 369.4 451.8 159.99 393.01 194.29 393.01 194.79"/>
  <polygon class="cls-1" points="56.97 367.44 77.77 379.59 92.91 253.11 213.36 271.38 216.64 460.76 247.38 478.73 247.38 271.07 56.97 159.99 56.97 367.44"/><path class="cls-2" d="M465.74,147c0-.07,0-.15,0-.22s-.07-.42-.12-.62l-.06-.21a7,7,0,0,0-.24-.7l0-.08a7,7,0,0,0-.37-.75l-.09-.15q-.16-.28-.35-.54l-.15-.19q-.21-.27-.44-.51l-.1-.11a7.05,7.05,0,0,0-.61-.54l-.16-.12q-.27-.2-.55-.37l-.1-.07L257.92,21.32a7,7,0,0,0-7.11,0L46.42,141.78l-.1.07q-.28.17-.54.37l-.17.12a7,7,0,0,0-.61.54l-.1.11q-.23.25-.44.52l-.14.19q-.19.26-.36.55l-.09.14a7,7,0,0,0-.37.76l0,.06a6.94,6.94,0,0,0-.24.72l-.05.21q-.08.31-.13.63c0,.07,0,.14,0,.21a7,7,0,0,0-.05.83V371.45a7,7,0,0,0,3.47,6L250.85,497h0c.13.07.26.13.39.19a6.85,6.85,0,0,0,4,.69l.28-.06c.2,0,.4-.07.6-.12l.32-.11c.18-.06.36-.11.54-.18l.26-.12c.19-.09.39-.17.57-.28h0L462.28,379.52a7,7,0,0,0,3.51-6.07V147.81A7,7,0,0,0,465.74,147ZM247.38,478.73l-30.75-18v.07L77.75,379.71v-.11L57,367.44V160L247.38,271.07Zm7-219.78L63.81,147.78,254.36,35.48,445,147.78ZM451.79,369.4,261.38,478.83V271.07l60.79-35.46v.56l10-5.84v-.55l20.89-12.19v.54l10-5.84v-.53l20-11.64v.51l10-5.84v-.51L451.79,160Z"/>
  <path class="cls-3" d="M240.83,167.57h-41a21.25,21.25,0,1,1,0-42.51h41.05a5.84,5.84,0,1,0,0-11.68h-41a32.71,32.71,0,0,0-22.58,9l-1.42,1.42a32.93,32.93,0,0,0,24,55.5h41.05a5.84,5.84,0,0,0,0-11.68Z"/><path class="cls-3" d="M311.21,113.38H270.16a5.84,5.84,0,1,0,0,11.68h41.05a21.26,21.26,0,0,1,15,36.29,21.06,21.06,0,0,1-15,6.22H270.17a5.85,5.85,0,0,0,0,11.69h41.05a32.94,32.94,0,0,0,0-65.88Z"/>
  <path class="cls-3" d="M272.59,146.54a5.83,5.83,0,0,0-5.84-5.84H243.35a5.84,5.84,0,0,0,0,11.68h23.41A5.83,5.83,0,0,0,272.59,146.54Z"/>
</svg>