<svg id="Layer_1" data-name="Layer 1" xmlns="http://www.w3.org/2000/svg" viewBox="0 0 512 512">
<defs>
<style>
  .cls-1{fill:none;}.cls-2{fill:#2d2d35;}.cls-3{fill:#9c8e74;}.cls-4{fill:#fff;}
  .animate-path {
      stroke: #2d2d35;
      stroke-width: 10px;
    }
    #path1 {
      stroke-dasharray: 80;
      stroke-dashoffset: 0;
      animation: dash-1 3s linear infinite;
    }
    #path2 {
      stroke-dasharray: 110;
      stroke-dashoffset: 0;
      animation: dash-2 3s linear infinite;
    }
    #path3 {
      stroke-dasharray: 150;
      stroke-dashoffset: 0;
      animation: dash-1 3s linear infinite;
    }
    @keyframes dash-1 {
      0% {
        stroke-dashoffset: 0;
      }
      50% {
        stroke-dashoffset: 40;
      }
      100% {
        stroke-dashoffset: 0;
      }
    }
    @keyframes dash-2 {
      0% {
        stroke-dashoffset: 40;
      }
      50% {
        stroke-dashoffset: 0;
      }
      100% {
        stroke-dashoffset: 40;
      }
    }
    .circle-1 {
      animation: circle 3s linear infinite;
    }
    @keyframes circle {
      0% {
        transform: translate(0, 0);
      }
      50% {
        transform: translate(0, 40px);
      }
      100% {
        transform: translate(0, 0);
      }
    }
    .circle-2 {
      animation: circle2 3s linear infinite;
    }
    @keyframes circle2 {
      0% {
        transform: translate(0, 0);
      }
      50% {
        transform: translate(0, -40px);
      }
      100% {
        transform: translate(0, 0);
      }
    }
</style>
</defs>
<title>icon</title>
  <path class="cls-2 animate-path" id="path1" d="M270 480 L270 400"  stroke-linecap="null" stroke-linejoin="null"></path>
  <circle class="cls-2 circle-1" cx="270" cy="400" r="12"></circle>
  <circle class="cls-4 circle-1" cx="270" cy="400" r="4"></circle>

  <path class="cls-2 animate-path" id="path2" d="M300 480 L300 370"  stroke-linecap="null" stroke-linejoin="null"></path>
  <circle class="cls-2 circle-2" cx="300" cy="400" r="12"></circle>
  <circle class="cls-4 circle-2" cx="300" cy="400" r="4"></circle>

  <path class="cls-2 animate-path" id="path3" d="M330 480 L330 330"  stroke-linecap="null" stroke-linejoin="null"></path>
  <circle class="cls-2 circle-1" cx="330" cy="330" r="12"></circle>
  <circle class="cls-4 circle-1" cx="330" cy="330" r="4"></circle>
<path class="cls-1" d="M177.15,291.89c-.07-1.09-1.18-11.11-17.63-11.11H134.93v26.66c4,.07,11.71.16,25.22.16,6.28,0,10.89-1.6,13.7-4.75,3.91-4.38,3.33-10.61,3.32-10.67S177.16,292,177.15,291.89Z"/><path class="cls-1" d="M173.81,229.53c4-4.38,3.37-10.68,3.37-10.75s0-.19,0-.28c-.07-1.09-1.18-11.11-17.63-11.11H134.93v26.66c4,.07,11.71.16,25.22.16C166.4,234.23,171,232.65,173.81,229.53Z"/><path class="cls-1" d="M76.7,93H372.88c19.33,0,35.76,3.92,49,11.64-2.68-39.51-21.71-56.58-62.16-56.58H69.63c-9.51,0-15.95,2.27-19.11,6.76-4.46,6.32-2.22,16.78-1,20.27C49.91,76.16,60.31,93.18,76.7,93Z"/><rect class="cls-1" x="365.39" y="235.45" width="108.32" height="88.15" rx="23.19" ry="23.19"/><path class="cls-1" d="M385.13,474.52l-3.09.17c21.63,0,37.87-5.88,48.26-17.47,9.4-10.49,14.17-25.61,14.17-45V337.6H388.58a37.23,37.23,0,0,1-37.19-37.18V258.63a37.23,37.23,0,0,1,37.19-37.19h55.89V178.16c0-26.39-7.9-45.85-23.49-57.83-11.88-9.13-28.06-13.76-48.11-13.76H76.7c-12.38,0-22-5.18-28.85-10.91V419.38c0,37.74,16.6,55.31,52.26,55.31H216.4m24.82-129.35,121.58,5.22M211.64,293.82c-3.5,27.59-17.68,42.79-39.94,42.79h-.35v21.56a4,4,0,0,1-8,0V336.61H138.18v21.56a4,4,0,0,1-8,0V336.61H96.57a5,5,0,1,1,0-10h6.93V186.44H96.57a4.5,4.5,0,0,1,0-9h30.75V147a4,4,0,0,1,8,0v30.44h25.17V147a4,4,0,0,1,8,0v30.44h3.22c24.77,0,36.57,9.67,39.44,32.35,1.68,13.28-3.19,29-12.13,39.15a38.51,38.51,0,0,1-7.63,6.69,35.44,35.44,0,0,1,11.71,8.69C209.92,272.07,213,282.82,211.64,293.82Z"/><path class="cls-1" d="M172.58,261.78H129.65a5,5,0,1,1,0-10h42.94c1.41,0,2.75.07,4.05.17A26.5,26.5,0,0,0,192.26,243c7.22-8.19,11.31-21.38,10-32.07-2.6-20.48-13.16-24.48-30.51-24.48H113.5V326.61H171.7c17.05,0,27.15-11.45,30-34,1-8.15-1.2-16-6.13-21.62C190.31,264.95,182.35,261.78,172.58,261.78Zm-45.65-58.37a4,4,0,0,1,4-4h28.59c19.58,0,25.3,12.14,25.62,18.68.12,1.38.62,10.07-5.32,16.73-4.39,4.92-11,7.42-19.67,7.42-23.07,0-29.15-.25-29.39-.26a4,4,0,0,1-3.83-4Zm52.89,104.78c-4.39,4.92-11,7.42-19.67,7.42-23.07,0-29.15-.25-29.39-.26a4,4,0,0,1-3.83-4V276.78a4,4,0,0,1,4-4h28.59c19.58,0,25.3,12.14,25.62,18.68C185.26,292.84,185.76,301.53,179.82,308.19Z"/><path class="cls-2" d="M458,222.21v-44c0-26.67-7.67-48.2-22.28-62.86,0-.12,0-.23,0-.35,0-24.61-4.82-42.9-14.74-55.92-12.39-16.26-33-24.51-61.32-24.51H69.63c-14.22,0-24.39,4.23-30.24,12.57-6.29,9-5.09,29.05-5.09,30.3v342c0,45,22.76,68.86,65.81,68.86H382c25.64,0,45.27-7.39,58.35-22,11.7-13,17.63-31.22,17.63-54V336.84a37.25,37.25,0,0,0,29.69-36.43V258.63A37.25,37.25,0,0,0,458,222.21ZM50.52,54.84c3.17-4.49,9.6-6.76,19.11-6.76H359.71c40.45,0,59.47,17.07,62.16,56.58C408.63,96.94,392.21,93,372.88,93H76.7c-16.39.16-26.79-16.86-27.17-17.91C48.3,71.61,46.05,61.16,50.52,54.84Zm394,357.41c0,19.35-4.77,34.48-14.17,45-10.4,11.59-26.63,17.47-48.26,17.47H100.11c-35.65,0-52.26-17.57-52.26-55.31V95.66c6.85,5.73,16.47,10.91,28.85,10.91H372.88c20,0,36.23,4.63,48.11,13.76,15.59,12,23.49,31.44,23.49,57.83v43.29H388.58a37.23,37.23,0,0,0-37.19,37.19v41.79a37.23,37.23,0,0,0,37.19,37.18h55.89Zm29.24-111.83a23.21,23.21,0,0,1-23.19,23.18H388.58a23.21,23.21,0,0,1-23.19-23.18V258.63a23.21,23.21,0,0,1,23.19-23.19h61.95a23.21,23.21,0,0,1,23.19,23.19Z"/><path class="cls-3" d="M191.39,255.64a38.51,38.51,0,0,0,7.63-6.69c8.94-10.14,13.81-25.88,12.13-39.15-2.88-22.67-14.67-32.35-39.44-32.35h-3.22V147a4,4,0,0,0-8,0v30.44H135.32V147a4,4,0,0,0-8,0v30.44H96.57a4.5,4.5,0,0,0,0,9h6.93V326.61H96.57a5,5,0,1,0,0,10h33.62v21.56a4,4,0,0,0,8,0V336.61h25.17v21.56a4,4,0,0,0,8,0V336.61h.35c22.25,0,36.44-15.2,39.94-42.79,1.39-11-1.72-21.75-8.54-29.49A35.44,35.44,0,0,0,191.39,255.64Zm10.34,36.92c-2.87,22.59-13,34-30,34H113.5V186.44H171.7c17.36,0,27.92,4,30.51,24.48,1.36,10.69-2.74,23.88-10,32.07a26.5,26.5,0,0,1-15.62,8.95c-1.31-.1-2.65-.17-4.05-.17H129.65a5,5,0,1,0,0,10h42.94c9.77,0,17.73,3.17,23,9.17C200.52,276.53,202.75,284.41,201.72,292.56Z"/><path class="cls-3" d="M130.76,242c.25,0,6.32.26,29.39.26,8.65,0,15.27-2.5,19.67-7.42,5.94-6.66,5.44-15.34,5.32-16.73-.32-6.53-6-18.68-25.62-18.68H130.93a4,4,0,0,0-4,4V238A4,4,0,0,0,130.76,242Zm4.17-34.56h24.59c16.45,0,17.56,10,17.63,11.11,0,.08,0,.19,0,.28s.59,6.36-3.37,10.75c-2.82,3.12-7.41,4.69-13.65,4.69-13.52,0-21.2-.09-25.22-.16Z"/><path class="cls-3" d="M159.53,272.78H130.93a4,4,0,0,0-4,4v34.57a4,4,0,0,0,3.83,4c.25,0,6.32.26,29.39.26,8.65,0,15.27-2.5,19.67-7.42,5.94-6.66,5.44-15.35,5.32-16.73C184.83,284.92,179.1,272.78,159.53,272.78Zm14.33,30.08c-2.81,3.15-7.42,4.75-13.7,4.75-13.52,0-21.2-.09-25.22-.16V280.78h24.59c16.45,0,17.56,10,17.63,11.11,0,.1,0,.2,0,.3S177.77,298.47,173.85,302.86Z"/></svg>