<svg xmlns="http://www.w3.org/2000/svg" id="Layer_1" data-name="Layer 1" viewBox="0 0 512 512">
  <defs>
    <style>.cls-2{fill:#2d2d35;}.cls-3{fill:#9c8e74;}</style>
  </defs>
  <title>icon</title>
  <path class="cls-2" d="M459.66,218.94v-44c0-26.67-7.67-48.2-22.28-62.86,0-.12,0-.23,0-.35,0-24.61-4.82-42.9-14.74-55.92-12.39-16.26-33-24.51-61.32-24.51H71.27c-14.22,0-24.39,4.23-30.24,12.57-6.29,9-5.09,29.05-5.09,30.3v342c0,45,22.76,68.86,65.81,68.86H383.67c25.64,0,45.27-7.39,58.35-22,11.7-13,17.63-31.22,17.63-54V333.57a37.25,37.25,0,0,0,29.69-36.43V255.36A37.25,37.25,0,0,0,459.66,218.94Zm15.69,78.21a23.21,23.21,0,0,1-23.19,23.18H390.21A23.21,23.21,0,0,1,367,297.15V255.36a23.21,23.21,0,0,1,23.19-23.19h61.95a23.21,23.21,0,0,1,23.19,23.19ZM52.15,51.57c3.17-4.49,9.6-6.76,19.11-6.76H361.34c40.45,0,59.47,17.07,62.16,56.58-13.23-7.72-29.65-11.64-49-11.64H78.34c-16.39.16-26.79-16.86-27.17-17.91C49.93,68.34,47.69,57.89,52.15,51.57ZM268.27,397.52a4.49,4.49,0,1,1,4.49-4.49A4.49,4.49,0,0,1,268.27,397.52Zm32.89,32.12a4.49,4.49,0,1,1,4.49-4.49A4.49,4.49,0,0,1,301.16,429.64Zm31-60.23a4.49,4.49,0,1,1,4.49-4.49A4.49,4.49,0,0,1,332.11,369.41Zm99.83,84.54c-10.4,11.59-26.63,17.47-48.26,17.47H337.11v-94a13.49,13.49,0,1,0-10,0v94h-21V437.67a13.49,13.49,0,1,0-10,0v33.75H273.27V405.54a13.49,13.49,0,1,0-10,0v65.87H101.75c-35.65,0-52.26-17.57-52.26-55.31V92.39C56.34,98.12,66,103.3,78.34,103.3H374.51c20,0,36.23,4.63,48.11,13.76,15.59,12,23.49,31.44,23.49,57.83v43.29H390.21A37.23,37.23,0,0,0,353,255.36v41.79a37.23,37.23,0,0,0,37.19,37.18h55.89V409C446.11,428.33,441.34,443.46,431.94,453.95Z"/>
  <path class="cls-3" d="M193,252.37a38.51,38.51,0,0,0,7.63-6.69c8.94-10.14,13.81-25.88,12.13-39.15-2.88-22.67-14.67-32.35-39.44-32.35h-3.22V143.73a4,4,0,0,0-8,0v30.44H137V143.73a4,4,0,0,0-8,0v30.44H98.2a4.5,4.5,0,0,0,0,9h6.93V323.34H98.2a5,5,0,1,0,0,10h33.62V354.9a4,4,0,0,0,8,0V333.34H165V354.9a4,4,0,0,0,8,0V333.34h.35c22.25,0,36.44-15.2,39.94-42.79,1.39-11-1.72-21.75-8.54-29.49A35.44,35.44,0,0,0,193,252.37Zm10.34,36.92c-2.87,22.59-13,34-30,34H115.13V183.17h58.21c17.36,0,27.92,4,30.51,24.48,1.36,10.69-2.74,23.88-10,32.07a26.5,26.5,0,0,1-15.62,8.95c-1.31-.1-2.65-.17-4.05-.17H131.28a5,5,0,1,0,0,10h42.94c9.77,0,17.73,3.17,23,9.17C202.16,273.26,204.39,281.14,203.36,289.29Z"/>
  <path class="cls-3" d="M132.4,238.7c.25,0,6.32.26,29.39.26,8.65,0,15.27-2.5,19.67-7.42,5.94-6.66,5.44-15.34,5.32-16.73-.32-6.53-6-18.68-25.62-18.68H132.57a4,4,0,0,0-4,4V234.7A4,4,0,0,0,132.4,238.7Zm4.17-34.56h24.59c16.45,0,17.56,10,17.63,11.11,0,.08,0,.19,0,.28s.59,6.36-3.37,10.75c-2.82,3.12-7.41,4.69-13.65,4.69-13.52,0-21.2-.09-25.22-.16Z"/>
  <path class="cls-3" d="M161.16,269.51H132.57a4,4,0,0,0-4,4v34.57a4,4,0,0,0,3.83,4c.25,0,6.32.26,29.39.26,8.65,0,15.27-2.5,19.67-7.42,5.94-6.66,5.44-15.35,5.32-16.73C186.46,281.65,180.74,269.51,161.16,269.51Zm14.33,30.08c-2.81,3.15-7.42,4.75-13.7,4.75-13.52,0-21.2-.09-25.22-.16V277.51h24.59c16.45,0,17.56,10,17.63,11.11,0,.1,0,.2,0,.3S179.4,295.2,175.49,299.59Z"/>
</svg>
