<svg xmlns="http://www.w3.org/2000/svg" id="Layer_1" data-name="Layer 1" viewBox="0 0 512 512">
  <defs>
    <style>.cls-2{fill:#2d2d35;}.cls-3{fill:#9c8e74;}</style>
  </defs>
  <title>icon</title>
  <path class="cls-2" d="M470.94,172.72c-17-17.42-38.78-27-61.47-27h-.6a79.49,79.49,0,0,0-26.65,4.85,133.06,133.06,0,0,0-37-87.25c-25-26-59.54-40.7-94.85-40.37a129.07,129.07,0,0,0-92.71,40,131,131,0,0,0-36.4,84A79.15,79.15,0,0,0,108,145.74h-.6c-22.69,0-44.5,9.57-61.47,27a92.11,92.11,0,0,0-26.23,61c-.83,18.81,3.84,35.64,8.85,44,.44.73.9,1.55,1.41,2.43C36.23,291.13,48.15,312,86.3,322v26.64a13.49,13.49,0,1,0,10,0V324.3a189.83,189.83,0,0,0,21.23,2.76v73.55a13.49,13.49,0,1,0,10,0v-73c3,.1,6.08.16,9.27.16q6.23,0,13-.28v38.67a13.49,13.49,0,1,0,10,0V326.93l3.75-.28a7,7,0,0,0-1.1-14c-40.74,3.21-72-.82-93-12-16.6-8.83-23-20.06-27.26-27.49-.56-1-1.07-1.87-1.56-2.69-6.88-11.46-16.43-55.38,15.4-88,14.31-14.69,32.56-22.75,51.44-22.75h.49c18.53.14,36.28,8.19,50,22.68a7,7,0,1,0,10.17-9.62,87.1,87.1,0,0,0-33-22.06,117.08,117.08,0,0,1,32.65-78.1A115.17,115.17,0,0,1,250.47,37h1.12c31,0,61.41,13.11,83.5,36.08a117.14,117.14,0,0,1,33.2,84.15,89.89,89.89,0,0,0-19.46,15.61A7,7,0,0,0,359,182.42c13.7-14.49,31.45-22.54,50-22.68,19-.13,37.5,7.94,51.93,22.75,31.83,32.67,22.28,76.59,15.4,88-.49.81-1,1.71-1.56,2.69-4.25,7.43-10.66,18.66-27.26,27.49-21,11.17-52.3,15.2-93,12a7,7,0,0,0-1.1,14l1,.08v24a13.49,13.49,0,1,0,10,0V327.36q8.21.4,15.68.4c1.89,0,3.73,0,5.55-.06v74.91a13.49,13.49,0,1,0,10,0v-75.3a199.25,199.25,0,0,0,22.24-2.52v43.36a13.49,13.49,0,1,0,10,0V323.77a5,5,0,0,0-.11-1c40.38-9.76,52.73-31.35,59.15-42.58.5-.88,1-1.7,1.41-2.43,5-8.34,9.68-25.17,8.85-44A92.11,92.11,0,0,0,470.94,172.72ZM91.3,365.69a4.49,4.49,0,1,1,4.49-4.49A4.49,4.49,0,0,1,91.3,365.69Zm31.23,51.93a4.49,4.49,0,1,1,4.49-4.49A4.49,4.49,0,0,1,122.53,417.62Zm32.24-34.45a4.49,4.49,0,1,1,4.49-4.49A4.49,4.49,0,0,1,154.77,383.17ZM359.4,367.69a4.49,4.49,0,1,1,4.49-4.49A4.49,4.49,0,0,1,359.4,367.69Zm31.23,51.93a4.49,4.49,0,1,1,4.49-4.49A4.49,4.49,0,0,1,390.63,419.62Zm32.24-34.45a4.49,4.49,0,1,1,4.49-4.49A4.49,4.49,0,0,1,422.88,385.17Z"/>
  <path class="cls-3" d="M295.62,275.6a36.94,36.94,0,0,0,9.49-7.76,44.28,44.28,0,0,0,10.27-33.94c-3.14-24.78-16.41-37.35-39.44-37.35h-3.22V171.1a4,4,0,0,0-8,0v25.44H239.55V171.1a4,4,0,0,0-8,0v25.44H200.8a4.5,4.5,0,0,0,0,9h6.93V345.71H200.8a5,5,0,1,0,0,10H232V461.8a12.49,12.49,0,1,0,8,0V355.71h24.24v71.63a12.49,12.49,0,1,0,8,0V355.71h3.72c23.32,0,36.76-12.71,39.94-37.79a44.8,44.8,0,0,0-10.39-34.33A37.39,37.39,0,0,0,295.62,275.6ZM236,478.11a4.49,4.49,0,1,1,4.49-4.49A4.49,4.49,0,0,1,236,478.11Zm32.24-34.45a4.49,4.49,0,1,1,4.49-4.49A4.49,4.49,0,0,1,268.21,443.66Zm37.74-127c-2.55,20.09-11.81,29-30,29H217.73V205.55h58.21c18.52,0,27.93,9.09,30.51,29.48a35,35,0,0,1-8.09,26.86,27.52,27.52,0,0,1-17.27,9.2,42.74,42.74,0,0,0-4.27-.21H233.88a5,5,0,0,0,0,10h42.94A27.33,27.33,0,0,1,298,290.2,34.52,34.52,0,0,1,306,316.67Z"/>
  <path class="cls-3" d="M235,261.07c.25,0,6.32.26,29.4.26,8.65,0,15.27-2.5,19.67-7.42,5.94-6.65,5.44-15.34,5.32-16.73-.31-6.53-6-18.68-25.62-18.68H235.16a4,4,0,0,0-4,4v34.56A4,4,0,0,0,235,261.07Zm4.17-34.56h24.59c16.45,0,17.56,10,17.63,11.11q0,.15,0,.3c0,.06.59,6.29-3.32,10.67-2.81,3.15-7.42,4.75-13.7,4.75-13.52,0-21.2-.09-25.22-.16Z"/>
  <path class="cls-3" d="M263.76,291.89H235.16a4,4,0,0,0-4,4v34.56a4,4,0,0,0,3.83,4c.25,0,6.32.26,29.4.26,8.65,0,15.27-2.5,19.67-7.42,5.94-6.66,5.44-15.35,5.32-16.73C289.06,304,283.33,291.89,263.76,291.89ZM278.08,322c-2.81,3.15-7.42,4.75-13.7,4.75-13.52,0-21.2-.09-25.22-.16V299.89h24.59c16.45,0,17.56,10,17.63,11.11,0,.1,0,.2,0,.3S282,317.58,278.08,322Z"/>
</svg>
