<svg xmlns="http://www.w3.org/2000/svg" id="Layer_1" data-name="Layer 1" viewBox="0 0 512 512">
  <defs>
    <style>.cls-1{fill:#fff;}.cls-2{fill:#2d2d35;}.cls-3{fill:#9c8e74;}</style>
  </defs>
  <title>icon</title>
  <path class="cls-2" d="M10 10 H 20 V 90 H 10 L 10 10"/>
  <circle class="cls-2" cx="15" cy="90" r="12"/>
  <circle class="cls-1" cx="15" cy="90" r="4"/>
  <path class="cls-2" d="M467.34,143.48q0-.32-.12-.62l-.06-.21a7,7,0,0,0-.24-.7l0-.08a7,7,0,0,0-.37-.75l-.09-.15q-.16-.28-.35-.54l-.15-.19q-.21-.27-.44-.51l-.1-.11a7.05,7.05,0,0,0-.61-.54l-.16-.12q-.27-.2-.55-.37l-.1-.07L259.55,18a7,7,0,0,0-7.11,0L48.05,138.51l-.1.07q-.28.17-.54.37l-.17.12a7,7,0,0,0-.61.54l-.1.11q-.23.25-.44.52l-.14.19q-.19.26-.36.55l-.09.14a7,7,0,0,0-.37.76l0,.06a6.94,6.94,0,0,0-.24.72l-.05.21q-.08.31-.13.63c0,.07,0,.14,0,.21a7,7,0,0,0-.05.83V368.18a7,7,0,0,0,3.47,6L252.49,493.7h0c.13.07.26.13.39.19a6.85,6.85,0,0,0,4,.69l.28-.06c.2,0,.4-.07.6-.12l.32-.11c.18-.06.36-.11.54-.18l.26-.12c.19-.09.39-.17.57-.28h0L463.92,376.25a7,7,0,0,0,3.51-6.07V144.54a7,7,0,0,0-.05-.83C467.37,143.63,467.35,143.56,467.34,143.48ZM256,32.2l190.59,112.3L256,255.67,65.45,144.51ZM389.64,338.33a4.49,4.49,0,1,1-4.49,4.49A4.49,4.49,0,0,1,389.64,338.33Zm-30-70.23a4.49,4.49,0,1,1-4.49,4.49A4.49,4.49,0,0,1,359.69,268.11ZM328.8,306.62a4.49,4.49,0,1,1-4.49,4.49A4.49,4.49,0,0,1,328.8,306.62ZM58.61,156.72,249,267.8V475.46l-60.25-35.22v-138a13.49,13.49,0,1,0-10,0V434.39l-20-11.66V372.48a13.49,13.49,0,1,0-10,0v44.41l-20.89-12.21V334a13.49,13.49,0,1,0-10,0v64.87L58.61,364.17Zm125.16,137.5a4.49,4.49,0,1,1,4.49-4.49A4.49,4.49,0,0,1,183.76,294.22Zm-30,70.23A4.49,4.49,0,1,1,158.3,360,4.49,4.49,0,0,1,153.81,364.45Zm-30.89-38.51a4.49,4.49,0,1,1,4.49-4.49A4.49,4.49,0,0,1,122.92,325.94ZM263,475.56V267.8l60.79-35.46v66.25a13.49,13.49,0,1,0,10,0V226.51l20.89-12.19v45.76a13.49,13.49,0,1,0,10,0V208.49l20-11.64V330.3a13.49,13.49,0,1,0,10,0V191l58.79-34.29V366.13Z"/>
  <path class="cls-3" d="M242.46,164.3h-41a21.25,21.25,0,1,1,0-42.51h41.05a5.84,5.84,0,1,0,0-11.68h-41a32.71,32.71,0,0,0-22.58,9l-1.42,1.42a32.93,32.93,0,0,0,24,55.5h41.05a5.84,5.84,0,0,0,0-11.68Z"/>
  <path class="cls-3" d="M271.8,121.79h41.05a21.26,21.26,0,0,1,15,36.29,21.06,21.06,0,0,1-15,6.22H271.81a5.85,5.85,0,0,0,0,11.69h41.05a32.94,32.94,0,0,0,0-65.88H271.8a5.84,5.84,0,1,0,0,11.68Z"/>
  <path class="cls-3" d="M239.15,143.27a5.86,5.86,0,0,0,5.84,5.84h23.41a5.84,5.84,0,1,0,0-11.68H245A5.83,5.83,0,0,0,239.15,143.27Z"/>
</svg>
