<svg id="Layer_1" data-name="Layer 1" xmlns="http://www.w3.org/2000/svg" viewBox="0 0 512 512"><defs><style>.cls-1{fill:#9c8e74;}.cls-2{fill:#2d2d35;}</style></defs><title>coins</title><path class="cls-1" d="M240.84,13.59h30.44c4.67.61,9.33,1.27,14,1.83C332.94,21.15,375.84,38.75,412,70.2c72.1,62.73,99.81,142.17,82.44,235.94C476,405.4,391.35,484.47,291.88,497.92c-6.86.93-13.73,1.8-20.6,2.7H240.84c-1.2-.28-2.39-.66-3.61-.84-11.11-1.63-22.38-2.52-33.32-4.93C104.12,472.88,30.26,393.37,15.13,292c-1-6.54-1.73-13.11-2.58-19.67q0-15.22,0-30.44c.28-1.2.66-2.39.83-3.61,1.65-11.27,2.56-22.7,5-33.79C40.71,103.07,124.92,27,227.3,15.36,231.82,14.85,236.33,14.18,240.84,13.59ZM256.18,46C139.82,45.89,45,140.65,45,257.08s94.74,211.15,211.15,211.11c116.24,0,210.7-94.37,211-210.77C467.47,141.33,372.49,46.15,256.18,46Z"/><path class="cls-2" d="M434.72,257.13c0,98.38-80.83,179-178.92,178.63-98.64-.4-178.59-80.7-178.38-179.16.21-97.92,80.7-178.27,178.44-178.15C354.49,78.58,434.77,158.77,434.72,257.13ZM165.23,354.89h178l12.39-42.7H244.69a8.85,8.85,0,0,1,0-1.81c4.28-16.21,8.51-32.44,13-48.6a6.57,6.57,0,0,1,3.7-3.58c8.88-3.35,17.87-6.39,26.79-9.64,1.39-.51,3.42-1.32,3.73-2.41,2.81-9.8,5.31-19.68,8.12-30.38l-33.66,12,23.7-88.51H223.13c-.42,1.39-.86,2.71-1.22,4-9.13,34.24-18.49,68.42-27.17,102.78C193,253,190,256.6,183.24,258.26c-5.78,1.41-12.73,2.68-16.43,6.6-3.55,3.76-3.61,10.84-5.17,16.47-1.29,4.62-2.54,9.26-4,14.62l25.84-9Z"/></svg>