<svg id="Layer_1" data-name="Layer 1" xmlns="http://www.w3.org/2000/svg" viewBox="0 0 512 512"><defs><style>.cls-1{fill:#9c8e74;}.cls-2{fill:#2d2d35;}</style></defs><title>coins</title><path class="cls-1" d="M240.87,13.59h30.44a17.67,17.67,0,0,0,3.14.79c25.33,1.73,49.91,7.06,73.2,17.11Q469.7,84.17,495.79,214.73c1.78,9,2.57,18.1,3.82,27.16v30.44c-.28,1.2-.67,2.39-.83,3.61-1.4,10.19-2.15,20.51-4.21,30.57C474,406.71,392.32,483.61,291.44,498c-6.7,1-13.42,1.77-20.13,2.65H240.87a17.43,17.43,0,0,0-3.13-.8A239.64,239.64,0,0,1,177,487.47C60.69,448.31-8.72,325,18.16,205.27c23.09-102.83,105-177,209.64-189.95C232.16,14.78,236.51,14.17,240.87,13.59Zm231.67,242.9c-.59-119.89-97.38-216.25-216.72-215.72C135.29,41.31,39,138.43,39.6,257.5,40.25,377.25,137.24,474,256.12,473.57,376.3,473.09,473.49,375.59,472.54,256.48Z"/><path class="cls-2" d="M66.74,257.13c-.07-104.42,84.9-189.4,189.33-189.37s189.34,84.83,189.37,189.33S360.57,446.45,256.11,446.46,66.8,361.67,66.74,257.13Zm202-53.41c-1.57,1.89-2.52,3.07-3.51,4.22-25.81,29.63-51.34,59.53-77.62,88.75-8.63,9.59-13.07,19.81-12.75,32.51.24,9.57,0,19.16,0,29.28H233v38.05h48V357.65h54.41V311.3H242.85c1.53-1.91,2.43-3.13,3.43-4.26q41.48-47.41,83-94.79c3.85-4.4,6.77-9.13,6.91-15.22.22-9.34.6-18.67.83-28,.1-4.22,0-8.44,0-13.13H278.8V118.37H232.74v39H180.23v46.39Z"/></svg>